<svg xmlns="http://www.w3.org/2000/svg" xmlns:xlink="http://www.w3.org/1999/xlink" version="1.1" x="0px" y="0px" viewBox="0 0 64 80" enable-background="new 0 0 64 64" xml:space="preserve"><style>.skull {fill: #f6f8f7;}</style><g><path class="skull" d="M32,15.393c-10.375,0-18.816,8.441-18.816,18.816c0,4.729,1.841,5.829,4.651,6.968c0.829,0.336,1.747,0.708,2.75,1.314   v4.484c0,0.9,0.73,1.631,1.631,1.631h19.569c0.901,0,1.631-0.73,1.631-1.631v-4.484c1.003-0.606,1.922-0.978,2.75-1.314   c2.81-1.139,4.651-2.239,4.651-6.968C50.816,23.834,42.375,15.393,32,15.393z M24.45,35.248c-2.765,0-5.006-2.241-5.006-5.006   c0-2.764,2.241-5.006,5.006-5.006c2.764,0,5.006,2.241,5.006,5.006C29.455,33.007,27.214,35.248,24.45,35.248z M33.455,42.861H32   h-1.455c-0.762,0-1.258-0.802-0.917-1.483l1.455-2.91c0.189-0.378,0.553-0.567,0.917-0.567c0.364,0,0.728,0.189,0.917,0.567   l1.455,2.91C34.713,42.059,34.217,42.861,33.455,42.861z M39.55,35.248c-2.765,0-5.006-2.241-5.006-5.006   c0-2.764,2.241-5.006,5.006-5.006c2.764,0,5.006,2.241,5.006,5.006C44.556,33.007,42.315,35.248,39.55,35.248z"/><path class="skull" d="M61.561,7.749c-0.987-0.987-2.33-1.399-3.615-1.238c0.161-1.285-0.251-2.629-1.238-3.615c-1.697-1.697-4.448-1.697-6.145,0   c-1.595,1.595-1.691,4.12-0.289,5.827l-6.626,6.626c2.211,1.37,4.162,3.119,5.767,5.154l6.32-6.32   c1.707,1.402,4.232,1.306,5.827-0.289C63.258,12.197,63.258,9.446,61.561,7.749z"/><path class="skull" d="M61.561,50.106c-1.595-1.594-4.12-1.69-5.827-0.289l-6.403-6.403c-0.625,0.338-1.268,0.621-1.903,0.878   c-0.22,0.089-0.436,0.177-0.652,0.268v2.416c0,1.328-0.525,2.534-1.374,3.429l4.872,4.872c-1.402,1.707-1.306,4.232,0.289,5.827   c1.697,1.697,4.448,1.697,6.145,0c0.987-0.987,1.399-2.33,1.238-3.615c1.285,0.161,2.629-0.251,3.615-1.238   C63.258,54.554,63.258,51.803,61.561,50.106z"/><path class="skull" d="M20.353,15.349l-6.626-6.626c1.402-1.707,1.306-4.232-0.289-5.827c-1.697-1.697-4.448-1.697-6.145,0   c-0.987,0.987-1.399,2.33-1.238,3.615C4.77,6.35,3.426,6.762,2.439,7.749c-1.697,1.697-1.697,4.448,0,6.145   c1.595,1.595,4.12,1.691,5.827,0.289l6.32,6.32C16.191,18.468,18.142,16.719,20.353,15.349z"/><path class="skull" d="M18.599,50.405c-0.849-0.895-1.374-2.101-1.374-3.429V44.56c-0.214-0.09-0.429-0.177-0.647-0.266   c-0.637-0.258-1.282-0.542-1.907-0.88l-6.404,6.404c-1.707-1.402-4.232-1.306-5.827,0.288c-1.697,1.697-1.697,4.448,0,6.145   c0.987,0.987,2.33,1.399,3.615,1.238c-0.161,1.285,0.251,2.629,1.238,3.615c1.697,1.697,4.448,1.697,6.145,0   c1.595-1.595,1.691-4.12,0.289-5.827L18.599,50.405z"/></g></svg>